<svg width="359" height="169" viewBox="0 0 359 169" fill="none" xmlns="http://www.w3.org/2000/svg">
<path d="M27.2952 119.815C28.7944 119.815 29.88 120.435 30.552 121.676C31.2757 122.865 31.6376 124.235 31.6376 125.786C31.6376 126.561 31.5601 127.233 31.405 127.802C31.2499 128.37 30.9397 128.913 30.4745 129.43C30.0092 129.895 29.3889 130.361 28.6134 130.826C27.838 131.24 26.8299 131.705 25.5892 132.222C22.6943 133.462 20.4197 134.962 18.7654 136.719C17.1112 138.425 16.2841 140.131 16.2841 141.837C16.2841 142.923 16.6459 143.957 17.3697 144.939C18.0934 145.921 19.2307 146.8 20.7816 147.575C22.3324 148.299 24.3227 148.893 26.7524 149.359C29.2338 149.772 32.2063 149.979 35.6699 149.979C39.2368 149.979 42.6229 149.566 45.828 148.738C49.0331 147.86 51.8247 146.645 54.2027 145.094C56.6324 143.543 58.5451 141.708 59.9409 139.588C61.3883 137.469 62.1121 135.168 62.1121 132.687C62.1121 130.826 61.3366 128.887 59.7858 126.871C58.2349 124.855 55.7794 122.761 52.4192 120.59C46.4742 116.713 41.9508 113.586 38.8491 111.208C35.7991 108.83 33.9122 107.33 33.1885 106.71C29.3113 103.298 26.4164 100.015 24.5036 96.862C22.5909 93.7086 21.6345 90.426 21.6345 87.0141C21.6345 83.8606 22.3841 80.7848 23.8833 77.7864C25.4342 74.7881 27.502 71.9707 30.0867 69.3342C32.6715 66.6977 35.644 64.2681 39.0042 62.0452C42.4161 59.7706 45.9572 57.832 49.6276 56.2294C53.3497 54.6269 57.0718 53.3862 60.7938 52.5073C64.5676 51.5768 68.1346 51.1116 71.4948 51.1116C74.0279 51.1116 76.3542 51.3959 78.4737 51.9645C80.6449 52.5332 82.5318 53.4379 84.1343 54.6786C85.7369 55.8676 86.9776 57.4184 87.8564 59.3311C88.7869 61.2439 89.2522 63.5443 89.2522 66.2325C89.2522 70.1096 88.1407 73.8059 85.9178 77.3212C83.6949 80.8365 80.3089 84.1191 75.7597 87.1691C73.7435 88.5649 71.8825 89.2628 70.1766 89.2628C68.4189 89.2628 67.0231 88.6425 65.9892 87.4018C64.9553 86.1094 64.4384 84.6102 64.4384 82.9043C64.4384 81.4568 64.8519 80.0093 65.6791 78.5618C66.5579 77.1144 67.9537 75.8737 69.8664 74.8398C71.3656 74.0643 72.6838 73.0304 73.8211 71.7381C75.0101 70.394 75.6046 69.1016 75.6046 67.8609C75.6046 66.6719 75.191 65.8965 74.3639 65.5346C73.5885 65.1727 72.6321 64.9918 71.4948 64.9918C69.3236 64.9918 66.9456 65.2761 64.3608 65.8448C61.8277 66.3617 59.2688 67.0855 56.684 68.016C54.151 68.9465 51.6696 70.058 49.2399 71.3503C46.8619 72.6427 44.7424 74.0385 42.8814 75.5377C41.072 77.0368 39.5987 78.6394 38.4614 80.3453C37.3758 81.9996 36.833 83.6539 36.833 85.3081C36.833 86.4454 37.0656 87.5052 37.5309 88.4874C37.9961 89.4696 38.6682 90.4518 39.547 91.434C40.4775 92.4162 41.589 93.4501 42.8814 94.5357C44.1738 95.5696 45.6729 96.707 47.3789 97.9476L65.524 111.363C67.8503 113.069 69.9181 114.749 71.7274 116.403C73.5885 118.005 75.1393 119.634 76.38 121.288C77.6207 122.891 78.5771 124.519 79.2491 126.173C79.9212 127.828 80.2572 129.585 80.2572 131.446C80.2572 135.582 79.1716 139.64 77.0004 143.621C74.8808 147.549 71.8308 151.065 67.8503 154.166C63.9214 157.268 59.1654 159.775 53.5823 161.688C48.0509 163.601 41.8992 164.557 35.1271 164.557C28.8202 164.557 23.4439 164.04 18.9981 163.006C14.604 162.024 10.9853 160.68 8.14203 158.974C5.29878 157.216 3.23096 155.226 1.93858 153.003C0.646193 150.729 0 148.351 0 145.869C0 143.285 0.646193 140.674 1.93858 138.037C3.28266 135.349 5.1437 132.816 7.52169 130.438C9.95137 128.06 12.8463 125.941 16.2065 124.08C19.5667 122.219 23.2629 120.797 27.2952 119.815Z" fill="#4459A5" fill-opacity="0.933333"/>
<path d="M114.807 159.362C114.032 160.913 113.101 162.283 112.016 163.472C110.93 164.661 109.767 165.643 108.526 166.418C107.286 167.194 106.019 167.762 104.727 168.124C103.434 168.538 102.219 168.745 101.082 168.745C99.4279 168.745 98.0321 168.305 96.8948 167.426C95.7575 166.599 95.1889 165.358 95.1889 163.704C95.1889 163.136 95.2406 162.515 95.344 161.843C95.499 161.119 95.7834 160.344 96.1969 159.517C100.126 151.401 104.029 143.595 107.906 136.099C111.835 128.603 115.609 121.598 119.227 115.085C122.898 108.571 126.361 102.652 129.618 97.3273C132.875 91.951 135.821 87.3759 138.458 83.6022C141.146 79.7767 143.421 76.8301 145.282 74.7622C147.194 72.6944 148.59 71.6605 149.469 71.6605C151.278 71.6605 152.622 72.1775 153.501 73.2114C154.38 74.2453 154.82 75.4601 154.82 76.8559C154.82 77.9932 154.535 79.1305 153.967 80.2678C152.674 82.9043 151.201 85.9026 149.547 89.2628C147.944 92.5713 146.238 96.1125 144.429 99.8862C142.619 103.608 140.733 107.485 138.768 111.518C136.804 115.498 134.865 119.479 132.952 123.459C131.04 127.388 129.153 131.214 127.292 134.936C125.482 138.606 123.776 142.018 122.174 145.171C120.623 148.325 119.201 151.142 117.909 153.624C116.668 156.053 115.634 157.966 114.807 159.362ZM205.455 68.6363C205.455 69.5668 205.093 70.8851 204.37 72.591C203.698 74.2453 202.715 75.8737 201.423 77.4762C200.182 79.0788 198.657 80.4746 196.848 81.6636C195.09 82.8526 193.126 83.4471 190.955 83.4471C190.438 83.4471 189.792 83.4212 189.016 83.3695C188.241 83.2661 187.465 83.0594 186.69 82.7492C185.966 82.439 185.346 81.9996 184.829 81.4309C184.312 80.8623 184.053 80.1127 184.053 79.1822C184.053 78.7169 184.286 78.0707 184.751 77.2436C185.216 76.3648 185.708 75.4343 186.225 74.4521C186.793 73.4699 187.31 72.5135 187.775 71.583C188.241 70.6524 188.473 69.877 188.473 69.2567C188.473 67.499 187.233 66.2325 184.751 65.4571C182.27 64.6299 178.108 64.2164 172.267 64.2164C166.425 64.4231 161.152 64.785 156.448 65.302C151.744 65.7672 147.401 66.3876 143.421 67.163C139.44 67.8867 135.718 68.7397 132.255 69.7219C128.791 70.7041 125.379 71.7639 122.019 72.9012C118.659 73.9868 115.247 75.1758 111.783 76.4682C108.371 77.7089 104.727 78.9754 100.85 80.2678C100.488 80.3712 100.126 80.4746 99.7639 80.578C99.4537 80.6814 99.1694 80.7331 98.9109 80.7331C98.0838 80.7331 97.3342 80.5521 96.6622 80.1903C95.9902 79.8284 95.3957 79.3373 94.8787 78.7169C94.4134 78.0966 94.0257 77.3987 93.7156 76.6233C93.4571 75.8478 93.3278 75.0466 93.3278 74.2194C93.3278 72.8754 94.4134 71.3762 96.5846 69.7219C98.7559 68.016 101.728 66.31 105.502 64.6041C109.276 62.8981 113.722 61.2439 118.84 59.6413C123.957 57.9871 129.463 56.5396 135.356 55.2989C141.301 54.0065 147.479 52.9985 153.889 52.2747C160.351 51.4993 166.787 51.1116 173.197 51.1116C178.729 51.1116 183.511 51.551 187.543 52.4298C191.575 53.3086 194.909 54.5235 197.546 56.0743C200.182 57.6252 202.147 59.4862 203.439 61.6574C204.732 63.777 205.404 66.1032 205.455 68.6363Z" fill="#4459A5" fill-opacity="0.933333"/>
<path d="M231.243 140.907C230.985 141.889 230.7 143.026 230.39 144.318C230.132 145.559 230.002 146.748 230.002 147.885C230.002 148.919 230.157 149.798 230.468 150.522C230.778 151.246 231.45 151.608 232.484 151.608C233.879 151.608 235.534 151.116 237.446 150.134C239.411 149.1 241.505 147.756 243.727 146.102C245.95 144.396 248.251 142.457 250.629 140.286C253.007 138.063 255.359 135.789 257.685 133.462C260.012 131.084 262.234 128.706 264.354 126.328C266.473 123.95 287.13 102.213 288.784 100.145L272.242 129.921C268.83 134.47 265.956 138.89 262.338 143.078C258.719 147.265 255.023 150.961 251.249 154.166C247.527 157.372 243.779 159.93 240.005 161.843C236.232 163.756 232.484 164.712 228.762 164.712C226.59 164.712 224.729 164.35 223.179 163.627C221.679 162.955 220.465 162.024 219.534 160.835C218.603 159.594 217.906 158.199 217.44 156.648C217.027 155.045 216.82 153.365 216.82 151.608C216.82 150.935 216.846 149.979 216.898 148.738C216.949 147.498 217.001 146.231 217.053 144.939C217.156 143.595 217.234 142.38 217.285 141.294C217.389 140.209 217.44 139.511 217.44 139.201L189.913 140.907L177.118 141.062C174.947 145.766 172.801 149.927 170.682 153.546C169.751 155.097 168.769 156.622 167.735 158.121C166.701 159.62 165.667 160.964 164.633 162.153C163.6 163.291 162.566 164.195 161.532 164.867C160.498 165.591 159.49 165.953 158.508 165.953C156.957 165.953 155.69 165.72 154.708 165.255C153.726 164.79 152.95 164.195 152.382 163.472C151.813 162.8 151.399 162.024 151.141 161.145C150.934 160.266 150.831 159.439 150.831 158.664C150.831 157.32 151.012 156.002 151.374 154.709C151.735 153.365 152.252 152.099 152.924 150.91L163.16 133.695C163.625 132.971 164.556 131.24 165.952 128.5C167.399 125.76 169.234 122.4 171.457 118.419C173.732 114.387 176.342 109.941 179.289 105.082C182.236 100.222 185.415 95.3112 188.827 90.3484C192.29 85.334 195.935 80.4746 199.76 75.7703C203.638 71.066 207.592 66.9045 211.625 63.2858C215.709 59.6155 219.818 56.6947 223.954 54.5235C228.09 52.3006 232.199 51.1891 236.283 51.1891C240.109 51.1891 243.857 52.3781 247.527 54.7561C251.249 57.1341 254.79 61.0371 258.15 66.4651C258.512 67.1889 258.693 67.8092 258.693 68.3262C258.693 68.9982 258.512 69.6702 258.15 70.3423C257.789 71.0143 257.298 71.6088 256.677 72.1258C256.109 72.6427 255.462 73.0563 254.739 73.3665C254.015 73.6766 253.265 73.8317 252.49 73.8317C251.559 73.8317 250.474 73.6249 249.233 73.2114C248.044 72.7978 246.907 71.919 245.821 70.5749C244.219 68.7139 242.538 67.3698 240.781 66.5427C239.075 65.6638 237.369 65.2244 235.663 65.2244C233.233 65.2244 230.752 65.9223 228.219 67.3181C225.686 68.6622 223.127 70.5232 220.542 72.9012C218.009 75.2275 215.476 77.9415 212.943 81.0432C210.41 84.0933 207.954 87.3242 205.576 90.7361C203.198 94.148 200.898 97.6375 198.675 101.204C196.452 104.771 194.358 108.183 192.394 111.44C190.429 114.697 188.62 117.695 186.966 120.435C185.363 123.175 183.942 125.475 182.701 127.336H196.891L220.852 125.553C221.317 124.519 221.938 123.123 222.713 121.366C223.489 119.556 224.342 117.54 225.272 115.317C226.254 113.094 227.314 110.691 228.451 108.106C229.589 105.521 230.726 102.936 231.863 100.351C233.052 97.715 234.215 95.1302 235.353 92.5972C236.49 90.0124 237.55 87.6344 238.532 85.4632C239.204 83.4988 240.186 82.103 241.479 81.2759C242.823 80.4487 244.244 80.0352 245.744 80.0352C246.519 80.0352 247.294 80.1644 248.07 80.4229C248.845 80.6297 249.543 80.9915 250.164 81.5085C250.836 81.9737 251.378 82.5941 251.792 83.3695C252.206 84.0933 252.438 84.9721 252.49 86.006C252.49 86.9882 252.05 88.6683 251.172 91.0463C250.344 93.4243 249.259 96.2158 247.915 99.421C246.622 102.626 245.149 106.116 243.495 109.889C241.892 113.611 240.29 117.359 238.687 121.133C237.136 124.855 235.689 128.448 234.345 131.912C233.001 135.323 231.967 138.322 231.243 140.907Z" fill="#4459A5" fill-opacity="0.933333"/>
<path d="M300.532 112.526C300.843 112.577 301.153 112.603 301.463 112.603C301.825 112.603 302.187 112.603 302.549 112.603C307.046 112.603 311.285 111.647 315.266 109.734C319.298 107.77 322.813 105.288 325.812 102.29C328.81 99.2917 331.162 95.9574 332.868 92.287C334.626 88.6166 335.504 85.0496 335.504 81.586C335.504 79.1047 335.039 76.7525 334.109 74.5296C333.23 72.3067 331.808 70.3681 329.844 68.7139C327.931 67.0596 325.45 65.7414 322.4 64.7592C319.401 63.777 315.808 63.2858 311.621 63.2858C306.917 63.2858 302.859 63.7253 299.447 64.6041C296.087 65.4829 293.166 66.6202 290.684 68.016C288.255 69.4118 286.187 71.0143 284.481 72.8237C282.827 74.633 281.379 76.494 280.139 78.4068C278.95 80.3195 277.864 82.1805 276.882 83.9899C275.9 85.7992 274.866 87.4018 273.78 88.7975C272.746 90.1933 271.583 91.3306 270.291 92.2094C268.998 93.0883 267.396 93.5277 265.483 93.5277C262.898 93.5277 260.96 92.8815 259.667 91.5891C258.375 90.245 257.729 88.384 257.729 86.006C257.729 83.7831 258.323 81.3793 259.512 78.7945C260.753 76.2097 262.485 73.6249 264.708 71.0402C266.982 68.4554 269.748 65.974 273.005 63.596C276.261 61.1663 279.906 59.0468 283.938 57.2375C288.022 55.3764 292.468 53.9031 297.276 52.8175C302.083 51.6802 307.175 51.1116 312.552 51.1116C317.825 51.1116 322.865 51.7836 327.673 53.1277C332.532 54.4718 336.823 56.4879 340.545 59.1761C344.267 61.8125 347.213 65.1469 349.385 69.1791C351.608 73.2114 352.719 77.9157 352.719 83.292C352.719 86.9107 352.047 90.3743 350.703 93.6828C349.41 96.9396 347.653 100.015 345.43 102.91C343.207 105.754 340.596 108.39 337.598 110.82C334.651 113.198 331.498 115.317 328.138 117.178C324.778 119.039 321.314 120.616 317.747 121.908C314.232 123.201 310.82 124.131 307.511 124.7C307.977 127.13 308.726 129.87 309.76 132.92C310.846 135.918 312.138 138.787 313.637 141.527C315.188 144.215 316.894 146.516 318.755 148.428C320.616 150.341 322.581 151.375 324.648 151.53C325.062 151.582 325.45 151.608 325.812 151.608C326.173 151.608 326.535 151.608 326.897 151.608C330.671 151.608 334.031 150.987 336.978 149.746C339.924 148.506 342.38 147.136 344.344 145.637C346.671 143.931 348.687 141.94 350.393 139.666C351.995 137.857 353.624 136.952 355.278 136.952C356.312 136.952 357.191 137.314 357.914 138.037C358.638 138.761 359 139.743 359 140.984C359 142.173 358.612 143.569 357.837 145.171C357.113 146.722 355.847 148.351 354.037 150.057C348.713 155.071 343.491 158.741 338.374 161.068C333.307 163.342 328.5 164.48 323.95 164.48C320.228 164.48 316.791 163.42 313.637 161.3C310.484 159.181 307.615 156.312 305.03 152.693C302.445 149.074 300.093 144.861 297.974 140.054C295.854 135.194 293.967 130.076 292.313 124.7C291.382 126.82 290.426 129.327 289.444 132.222C288.462 135.065 287.402 138.012 286.264 141.062C285.127 144.112 283.938 147.136 282.698 150.134C281.457 153.081 280.087 155.743 278.588 158.121C277.089 160.447 275.486 162.334 273.78 163.782C272.074 165.229 270.213 165.953 268.197 165.953C266.543 165.953 265.199 165.695 264.165 165.178C263.131 164.661 262.33 164.014 261.761 163.239C261.192 162.464 260.779 161.611 260.52 160.68C260.313 159.75 260.21 158.871 260.21 158.044C260.21 156.855 260.365 155.64 260.675 154.399C260.985 153.158 261.425 151.995 261.993 150.91L273.78 129.921L284.869 109.036C286.833 105.521 288.798 102.135 290.762 98.8782C292.778 95.5696 294.717 92.6489 296.578 90.1158C298.49 87.5827 300.274 85.5666 301.928 84.0674C303.634 82.5166 305.159 81.7411 306.503 81.7411C306.865 81.7411 307.305 81.8187 307.822 81.9737C308.338 82.0771 308.804 82.3098 309.217 82.6716C309.631 82.9818 309.993 83.4729 310.303 84.145C310.613 84.7653 310.768 85.5666 310.768 86.5488C310.768 87.531 310.484 88.9009 309.915 90.6586C309.347 92.4162 308.597 94.4324 307.666 96.707C306.736 98.9815 305.65 101.489 304.41 104.229C303.169 106.917 301.877 109.683 300.532 112.526Z" fill="#4459A5" fill-opacity="0.933333"/>
<path d="M267 27.5C327.825 20.0475 341.72 25.3733 328.486 52.503C331.398 53.8196 334.442 54.4881 338.412 57.1349C354.785 20.7578 342.107 11.8267 272 18L267 23.5C266.5 25 266.5 25 267 27.5L267 27.5Z" fill="#4459A5" fill-opacity="0.933333"/>
<path d="M320.546 65.0745L305.988 80.9553C312.987 82.4063 312.938 86.0978 307.312 98.8212L330.471 69.7064C327.795 67.5448 325.827 66.4681 320.546 65.0745Z" fill="#4459A5" fill-opacity="0.933333"/>
<path d="M260.435 7.81876C258.341 4.07449 257.294 2.20234 255.689 2.19221C254.083 2.18212 252.982 4.0407 250.78 7.75789L250.21 8.71956C249.584 9.77587 249.272 10.304 248.791 10.6508C248.31 10.9976 247.715 11.1236 246.526 11.3758L245.444 11.6054C241.26 12.4928 239.168 12.9366 238.649 14.4783C238.131 16.02 239.529 17.6387 242.325 20.8761L243.049 21.7136C243.844 22.6336 244.241 23.0936 244.414 23.6606C244.588 24.2276 244.518 24.8376 244.378 26.0574L244.251 27.1682C243.759 31.4609 243.512 33.6073 244.797 34.5702C246.082 35.5332 248.048 34.675 251.978 32.9586L252.995 32.5145C254.112 32.0268 254.67 31.783 255.259 31.7865C255.847 31.7903 256.398 32.0412 257.5 32.5429L258.504 32.9998C262.384 34.7653 264.324 35.6482 265.637 34.7016C266.95 33.7549 266.766 31.6059 266.398 27.3078L266.303 26.1957C266.199 24.9744 266.147 24.3636 266.337 23.7989C266.527 23.2342 266.937 22.7792 267.759 21.8695L268.506 21.0411C271.397 17.8396 272.842 16.2389 272.368 14.6909C271.894 13.1429 269.815 12.6729 265.658 11.7328L264.582 11.4896C263.401 11.2225 262.81 11.089 262.339 10.7362C261.869 10.3834 261.571 9.85145 260.976 8.78747L260.435 7.81876Z" fill="#E0D35D" fill-opacity="0.88"/>
</svg>
